<svg width="35" height="19" viewBox="0 0 35 19" fill="none" xmlns="http://www.w3.org/2000/svg">
<path d="M32.8825 6.09339L27.3784 0.532394C27.2462 0.399094 27.0889 0.293294 26.9155 0.221094C26.7422 0.148894 26.5563 0.111694 26.3686 0.111694C26.1808 0.111694 25.9949 0.148894 25.8216 0.221094C25.6483 0.293294 25.491 0.399094 25.3588 0.532394C25.0939 0.798894 24.9452 1.1593 24.9452 1.5351C24.9452 1.9108 25.0939 2.27129 25.3588 2.53779L30.422 7.64369H1.4223C1.045 7.64369 0.683299 7.79349 0.416599 8.06019C0.149799 8.32699 0 8.68869 0 9.0659C0 9.4431 0.149799 9.80489 0.416599 10.0716C0.683299 10.3383 1.045 10.4882 1.4223 10.4882H30.5073L25.3588 15.6225C25.2255 15.7547 25.1197 15.912 25.0475 16.0853C24.9753 16.2586 24.9381 16.4445 24.9381 16.6323C24.9381 16.8201 24.9753 17.006 25.0475 17.1793C25.1197 17.3526 25.2255 17.5099 25.3588 17.6421C25.491 17.7754 25.6483 17.8812 25.8216 17.9534C25.9949 18.0256 26.1808 18.0628 26.3686 18.0628C26.5563 18.0628 26.7422 18.0256 26.9155 17.9534C27.0889 17.8812 27.2462 17.7754 27.3784 17.6421L32.8825 12.1238C33.6815 11.3237 34.1303 10.2393 34.1303 9.10859C34.1303 7.97789 33.6815 6.89339 32.8825 6.09339Z" fill="#515050"/>
</svg>
