<svg width="95" height="44" viewBox="0 0 95 44" fill="none" xmlns="http://www.w3.org/2000/svg">
<path d="M6.62891 26H2.19922V1.16211H9.98633C11.6152 1.16211 13.0918 1.44336 14.416 2.00586C15.7402 2.55664 16.7949 3.37695 17.5801 4.4668C18.3652 5.55664 18.7578 6.9043 18.7578 8.50977C18.7578 10.0566 18.377 11.3691 17.6152 12.4473C16.8535 13.5137 15.8105 14.3223 14.4863 14.873C13.1621 15.4238 11.6621 15.6992 9.98633 15.6992H6.62891V26ZM9.98633 11.5332C11.416 11.5332 12.4941 11.293 13.2207 10.8125C13.959 10.332 14.3281 9.56445 14.3281 8.50977C14.3281 6.38867 12.8809 5.32812 9.98633 5.32812H6.62891V11.5332H9.98633ZM40.7832 26.0352H35.668L29.5508 15.3828H26.5625V26.0352H22.0977V1.16211H30.1309C31.6309 1.16211 33.0371 1.44336 34.3496 2.00586C35.6621 2.55664 36.7344 3.40625 37.5664 4.55469C38.3398 5.66797 38.7266 6.97461 38.7266 8.47461C38.7266 9.5293 38.5156 10.4844 38.0938 11.3398C37.6719 12.1953 37.0977 12.9277 36.3711 13.5371C35.6445 14.1465 34.8125 14.6152 33.875 14.9434L40.7832 26.0352ZM30.5352 11.7441C31.7656 11.6855 32.7031 11.3691 33.3477 10.7949C33.9922 10.209 34.3145 9.45898 34.3145 8.54492C34.3145 7.50195 33.9395 6.67578 33.1895 6.06641C32.4395 5.45703 31.4316 5.15234 30.166 5.15234H26.5977V11.7441H30.5352ZM53.5273 26.3516C50.9023 26.3516 48.6934 25.7715 46.9004 24.6113C45.6348 23.8027 44.6094 22.8242 43.8242 21.6758C43.0391 20.5273 42.459 19.2617 42.084 17.8789C41.7207 16.4961 41.5391 15.0605 41.5391 13.5723C41.5391 12.084 41.7207 10.6484 42.084 9.26562C42.459 7.88281 43.0391 6.61719 43.8242 5.46875C44.6094 4.32031 45.6348 3.33594 46.9004 2.51562C48.6934 1.36719 50.9023 0.792969 53.5273 0.792969C56.1523 0.792969 58.3672 1.36719 60.1719 2.51562C61.4258 3.33594 62.4453 4.32031 63.2305 5.46875C64.0156 6.61719 64.5898 7.88281 64.9531 9.26562C65.3281 10.6484 65.5156 12.084 65.5156 13.5723C65.5156 15.0605 65.3281 16.4961 64.9531 17.8789C64.5898 19.2617 64.0156 20.5273 63.2305 21.6758C62.4453 22.8242 61.4258 23.8027 60.1719 24.6113C58.3672 25.7715 56.1523 26.3516 53.5273 26.3516ZM53.5273 22.3965C55.2266 22.3965 56.6211 21.998 57.7109 21.2012C59.7734 19.6543 60.8047 17.1113 60.8047 13.5723C60.8047 10.9824 60.248 8.91406 59.1348 7.36719C57.8926 5.63281 56.0234 4.76562 53.5273 4.76562C51.8281 4.76562 50.4395 5.1582 49.3613 5.94336C47.2871 7.50195 46.25 10.0449 46.25 13.5723C46.25 15.2012 46.4961 16.6836 46.9883 18.0195C47.4805 19.3555 48.2598 20.4219 49.3262 21.2188C50.3926 22.0039 51.793 22.3965 53.5273 22.3965ZM74.1289 26H69.6641V1.16211H87.2773V5.25781H74.1289V11.5332H85.7305V15.6289H74.1289V26ZM94.6602 26H90.1953V1.16211H94.6602V26ZM2.07129 43H0.759766V31.271H4.04688C4.79395 31.271 5.44971 31.3983 6.01416 31.6528C6.57861 31.9019 7.01579 32.2699 7.32568 32.7568C7.64111 33.2383 7.79883 33.8221 7.79883 34.5083C7.79883 35.2056 7.64111 35.7922 7.32568 36.2681C7.01579 36.744 6.57861 37.1037 6.01416 37.3472C5.45524 37.5907 4.79948 37.7124 4.04688 37.7124H2.07129V43ZM4.04688 36.5337C4.79948 36.5337 5.39714 36.3704 5.83984 36.0439C6.28809 35.7174 6.51221 35.2056 6.51221 34.5083C6.51221 33.8553 6.29639 33.3462 5.86475 32.981C5.43864 32.6157 4.83268 32.4331 4.04688 32.4331H2.07129V36.5337H4.04688ZM17.8843 43H10.2891V31.271H17.8843V32.4082H11.6089V36.5752H17.0625V37.6792H11.6089V41.7964H17.8843V43ZM29.1235 43H27.8203V32.3916H21.8853V43H20.582V31.271H29.1235V43ZM40.2466 43H32.6514V31.271H40.2466V32.4082H33.9712V36.5752H39.4248V37.6792H33.9712V41.7964H40.2466V43ZM46.9619 43H45.6504V32.3418H41.6826V31.271H50.9297V32.3418H46.9619V43ZM61.4385 43H60.127V32.6489L55.1133 43H53.1875V31.271H54.4907V41.6055L59.5376 31.271H61.4385V43ZM68.9756 43H67.6641V32.3418H63.6963V31.271H72.9434V32.3418H68.9756V43ZM79.7168 43.166C78.5713 43.166 77.6056 42.8949 76.8198 42.3525C75.9953 41.777 75.3949 41.0299 75.0186 40.1113C74.6478 39.1872 74.4624 38.1938 74.4624 37.1313C74.4624 36.0688 74.6478 35.0783 75.0186 34.1597C75.3949 33.2355 75.9953 32.4829 76.8198 31.9019C77.6056 31.3651 78.5713 31.0967 79.7168 31.0967C80.8678 31.0967 81.839 31.3651 82.6304 31.9019C83.4549 32.4829 84.0553 33.2355 84.4316 34.1597C84.8079 35.0783 84.9961 36.0688 84.9961 37.1313C84.9961 38.1938 84.8079 39.1872 84.4316 40.1113C84.0553 41.0299 83.4549 41.777 82.6304 42.3525C81.839 42.8949 80.8678 43.166 79.7168 43.166ZM79.7168 41.9541C80.6243 41.9541 81.3797 41.7327 81.9829 41.29C82.6027 40.8252 83.0454 40.2275 83.311 39.4971C83.5822 38.7611 83.7178 37.9725 83.7178 37.1313C83.7178 36.2902 83.5822 35.5044 83.311 34.7739C83.0399 34.0435 82.5972 33.443 81.9829 32.9727C81.3797 32.5355 80.6243 32.3169 79.7168 32.3169C78.8203 32.3169 78.076 32.5355 77.4839 32.9727C76.8641 33.443 76.4186 34.0435 76.1475 34.7739C75.8818 35.5044 75.749 36.2902 75.749 37.1313C75.749 37.9725 75.8818 38.7583 76.1475 39.4888C76.4186 40.2192 76.8641 40.8197 77.4839 41.29C78.076 41.7327 78.8203 41.9541 79.7168 41.9541ZM89.0967 43H87.7852V31.271H91.0723C91.8193 31.271 92.4751 31.3983 93.0396 31.6528C93.604 31.9019 94.0412 32.2699 94.3511 32.7568C94.6665 33.2383 94.8242 33.8221 94.8242 34.5083C94.8242 35.2056 94.6665 35.7922 94.3511 36.2681C94.0412 36.744 93.604 37.1037 93.0396 37.3472C92.4806 37.5907 91.8249 37.7124 91.0723 37.7124H89.0967V43ZM91.0723 36.5337C91.8249 36.5337 92.4225 36.3704 92.8652 36.0439C93.3135 35.7174 93.5376 35.2056 93.5376 34.5083C93.5376 33.8553 93.3218 33.3462 92.8901 32.981C92.464 32.6157 91.8581 32.4331 91.0723 32.4331H89.0967V36.5337H91.0723Z" fill="#2A1D2C"/>
</svg>
