<svg width="23" height="15" viewBox="0 0 23 15" fill="none" xmlns="http://www.w3.org/2000/svg">
<path d="M12.4825 14.5C4.96596 14.5 0.678638 9.24474 0.5 0.5H4.26515C4.38882 6.91842 7.16459 9.63714 9.36321 10.1977V0.5H12.9085V6.03553C15.0796 5.7973 17.3607 3.27477 18.1302 0.5H21.6755C21.3855 1.93908 20.8075 3.30165 19.9776 4.5025C19.1477 5.70335 18.0837 6.71663 16.8523 7.47898C18.2269 8.17555 19.441 9.1615 20.4145 10.3717C21.388 11.582 22.0988 12.989 22.5 14.5H18.5974C18.2373 13.1876 17.5054 12.0128 16.4934 11.1228C15.4814 10.2328 14.2343 9.66727 12.9085 9.497V14.5H12.4825Z" fill="#F3F4F7"/>
</svg>
